<svg xmlns="http://www.w3.org/2000/svg" xmlns:xlink="http://www.w3.org/1999/xlink" version="1.1" x="0px" y="0px" viewBox="0 0 100 125" style="enable-background:new 0 0 100 100;" xml:space="preserve"><g><path d="M69.44,88.75H30.56c-4.032,0-7.312-3.28-7.312-7.312V18.562c0-4.032,3.28-7.312,7.312-7.312h38.88   c4.032,0,7.312,3.28,7.312,7.312v62.877C76.752,85.47,73.472,88.75,69.44,88.75z M30.56,12.25c-3.48,0-6.312,2.832-6.312,6.312   v62.877c0,3.48,2.832,6.312,6.312,6.312h38.88c3.48,0,6.312-2.831,6.312-6.312V18.562c0-3.48-2.832-6.312-6.312-6.312H30.56z    M63.879,79.043c-1.915,0-3.474-1.558-3.474-3.473c0-1.913,1.558-3.47,3.474-3.47c1.914,0,3.471,1.557,3.471,3.47   C67.35,77.485,65.793,79.043,63.879,79.043z M63.879,73.1c-1.364,0-2.474,1.108-2.474,2.47c0,1.364,1.11,2.473,2.474,2.473   c1.362,0,2.471-1.109,2.471-2.473C66.35,74.207,65.242,73.1,63.879,73.1z M49.999,79.043c-1.914,0-3.471-1.558-3.471-3.473   c0-1.913,1.557-3.47,3.471-3.47c1.916,0,3.474,1.557,3.474,3.47C53.472,77.485,51.914,79.043,49.999,79.043z M49.999,73.1   c-1.362,0-2.471,1.108-2.471,2.47c0,1.364,1.108,2.473,2.471,2.473c1.364,0,2.474-1.109,2.474-2.473   C52.472,74.207,51.362,73.1,49.999,73.1z M36.121,79.043c-1.916,0-3.474-1.558-3.474-3.473c0-1.913,1.558-3.47,3.474-3.47   c1.915,0,3.474,1.557,3.474,3.47C39.594,77.485,38.036,79.043,36.121,79.043z M36.121,73.1c-1.364,0-2.474,1.108-2.474,2.47   c0,1.364,1.11,2.473,2.474,2.473s2.474-1.109,2.474-2.473C38.594,74.207,37.484,73.1,36.121,73.1z M63.879,69.308   c-1.915,0-3.474-1.558-3.474-3.473c0-1.914,1.558-3.471,3.474-3.471c1.914,0,3.471,1.557,3.471,3.471   C67.35,67.75,65.793,69.308,63.879,69.308z M63.879,63.364c-1.364,0-2.474,1.108-2.474,2.471c0,1.364,1.11,2.473,2.474,2.473   c1.362,0,2.471-1.109,2.471-2.473C66.35,64.473,65.242,63.364,63.879,63.364z M49.999,69.308c-1.914,0-3.471-1.558-3.471-3.473   c0-1.914,1.557-3.471,3.471-3.471c1.916,0,3.474,1.557,3.474,3.471C53.472,67.75,51.914,69.308,49.999,69.308z M49.999,63.364   c-1.362,0-2.471,1.108-2.471,2.471c0,1.364,1.108,2.473,2.471,2.473c1.364,0,2.474-1.109,2.474-2.473   C52.472,64.473,51.362,63.364,49.999,63.364z M36.121,69.308c-1.916,0-3.474-1.558-3.474-3.473c0-1.914,1.558-3.471,3.474-3.471   c1.915,0,3.474,1.557,3.474,3.471C39.594,67.75,38.036,69.308,36.121,69.308z M36.121,63.364c-1.364,0-2.474,1.108-2.474,2.471   c0,1.364,1.11,2.473,2.474,2.473s2.474-1.109,2.474-2.473C38.594,64.473,37.484,63.364,36.121,63.364z M63.879,59.406   c-1.915,0-3.474-1.56-3.474-3.477c0-1.912,1.558-3.467,3.474-3.467c1.914,0,3.471,1.555,3.471,3.467   C67.35,57.847,65.793,59.406,63.879,59.406z M63.879,53.462c-1.364,0-2.474,1.107-2.474,2.467c0,1.366,1.11,2.477,2.474,2.477   c1.362,0,2.471-1.111,2.471-2.477C66.35,54.569,65.242,53.462,63.879,53.462z M49.999,59.406c-1.914,0-3.471-1.56-3.471-3.477   c0-1.912,1.557-3.467,3.471-3.467c1.916,0,3.474,1.555,3.474,3.467C53.472,57.847,51.914,59.406,49.999,59.406z M49.999,53.462   c-1.362,0-2.471,1.107-2.471,2.467c0,1.366,1.108,2.477,2.471,2.477c1.364,0,2.474-1.111,2.474-2.477   C52.472,54.569,51.362,53.462,49.999,53.462z M36.121,59.406c-1.916,0-3.474-1.56-3.474-3.477c0-1.912,1.558-3.467,3.474-3.467   c1.915,0,3.474,1.555,3.474,3.467C39.594,57.847,38.036,59.406,36.121,59.406z M36.121,53.462c-1.364,0-2.474,1.107-2.474,2.467   c0,1.366,1.11,2.477,2.474,2.477s2.474-1.111,2.474-2.477C38.594,54.569,37.484,53.462,36.121,53.462z M63.879,49.841   c-1.915,0-3.474-1.56-3.474-3.477c0-1.912,1.558-3.467,3.474-3.467c1.914,0,3.471,1.555,3.471,3.467   C67.35,48.281,65.793,49.841,63.879,49.841z M63.879,43.896c-1.364,0-2.474,1.107-2.474,2.467c0,1.366,1.11,2.477,2.474,2.477   c1.362,0,2.471-1.111,2.471-2.477C66.35,45.003,65.242,43.896,63.879,43.896z M49.999,49.841c-1.914,0-3.471-1.56-3.471-3.477   c0-1.912,1.557-3.467,3.471-3.467c1.916,0,3.474,1.555,3.474,3.467C53.472,48.281,51.914,49.841,49.999,49.841z M49.999,43.896   c-1.362,0-2.471,1.107-2.471,2.467c0,1.366,1.108,2.477,2.471,2.477c1.364,0,2.474-1.111,2.474-2.477   C52.472,45.003,51.362,43.896,49.999,43.896z M36.121,49.841c-1.916,0-3.474-1.56-3.474-3.477c0-1.912,1.558-3.467,3.474-3.467   c1.915,0,3.474,1.555,3.474,3.467C39.594,48.281,38.036,49.841,36.121,49.841z M36.121,43.896c-1.364,0-2.474,1.107-2.474,2.467   c0,1.366,1.11,2.477,2.474,2.477s2.474-1.111,2.474-2.477C38.594,45.003,37.484,43.896,36.121,43.896z M67.09,38.28H32.91   c-1.799,0-3.262-1.462-3.262-3.26V24.397c0-1.798,1.463-3.26,3.262-3.26H67.09c1.797,0,3.26,1.462,3.26,3.26V35.02   C70.35,36.817,68.888,38.28,67.09,38.28z M32.91,22.137c-1.248,0-2.262,1.014-2.262,2.26V35.02c0,1.246,1.015,2.26,2.262,2.26   H67.09c1.246,0,2.26-1.014,2.26-2.26V24.397c0-1.246-1.014-2.26-2.26-2.26H32.91z"/></g></svg>